# xmcd
# 
# Track frame offsets:
#     150
#     17828
#     32587
#     47158
#     60545
#     74446
#     88336
#     102330
#     115409
#     129388
#     145198
#     159331
#     175034
#     187037
#     201332
#     214716
# 
# Disc length: 3095
# 
# Revision: 1
# Processed by: cddbd v1.5.2PL0 Copyright (c) Steve Scherf et al.
# Submitted via: fre:ac v1.0.17
# 
DISCID=e80c1510
DTITLE=Mara Kayser - Star Edition
DYEAR=2008
DGENRE=Dance
TTITLE0=Morgensterne schweigen
TTITLE1=Unsichtbare Tränen
TTITLE2=Ich liebe dich täglich mehr
TTITLE3=Das Leben ist kein Wunschkonzert
TTITLE4=Endlich Sonne (Duett mit Axel Becker)
TTITLE5=Alle Männer dieser Welt
TTITLE6=Tanz mit mir
TTITLE7=Ich wünsch dir alles Gute
TTITLE8=Nur die Zeit heilt alle Wunden
TTITLE9=Weil du wieder hier bist
TTITLE10=Mein Herz, das ruft nach Liebe
TTITLE11=Liebe lebt
TTITLE12=Bis zum Horizont und weiter
TTITLE13=Ich denk nicht an morgen
TTITLE14=Träum nicht dein Leben
TTITLE15=Au Revoir heisst nicht Adieu
EXTD=
EXTT0=
EXTT1=
EXTT2=
EXTT3=
EXTT4=
EXTT5=
EXTT6=
EXTT7=
EXTT8=
EXTT9=
EXTT10=
EXTT11=
EXTT12=
EXTT13=
EXTT14=
EXTT15=
PLAYORDER=
